<svg width="67" height="68" viewBox="0 0 67 68" fill="none" xmlns="http://www.w3.org/2000/svg">
<path d="M2 33.625C2 16.159 16.2412 2 33.8085 2C37.0463 2 40.1712 2.48098 43.1147 3.375" stroke="white" stroke-width="4" stroke-linecap="round" stroke-linejoin="round"/>
<path fill-rule="evenodd" clip-rule="evenodd" d="M26.9629 40.4308C30.7435 44.1896 36.8731 44.1896 40.6537 40.4308C44.4343 36.672 60.0847 10.2499 58.7017 8.87494C57.3188 7.49994 30.7435 23.0602 26.9629 26.819C23.1823 30.5778 23.1823 36.672 26.9629 40.4308ZM33.8081 36.375C35.3357 36.375 36.5741 35.1438 36.5741 33.625C36.5741 32.1062 35.3357 30.875 33.8081 30.875C32.2805 30.875 31.0422 32.1062 31.0422 33.625C31.0422 35.1438 32.2805 36.375 33.8081 36.375Z" fill="white"/>
<ellipse cx="6.14901" cy="50.125" rx="2.76596" ry="2.75" fill="white"/>
<ellipse cx="17.2127" cy="61.125" rx="2.76596" ry="2.75" fill="white"/>
<ellipse cx="33.8084" cy="65.25" rx="2.76596" ry="2.75" fill="white"/>
<ellipse cx="50.4041" cy="61.125" rx="2.76596" ry="2.75" fill="white"/>
<ellipse cx="60.085" cy="50.125" rx="2.76596" ry="2.75" fill="white"/>
<ellipse cx="64.234" cy="33.625" rx="2.76596" ry="2.75" fill="white"/>
</svg>
